<?xml version="1.0" standalone="no"?><!DOCTYPE svg PUBLIC "-//W3C//DTD SVG 1.1//EN"
    "http://www.w3.org/Graphics/SVG/1.1/DTD/svg11.dtd">
<svg t="1676361991132" class="icon" viewBox="0 0 1024 1024" version="1.1" xmlns="http://www.w3.org/2000/svg" p-id="3533"
     width="200" height="200">
  <path d="M734.729123 286.795297a136 160 44.999 1 0 226.27022-226.278119 136 160 44.999 1 0-226.27022 226.278119Z"
        fill="#F6C456" p-id="3534"></path>
  <path
      d="M824 342.4c-38.4 0-76-13.6-103.2-40.8-60.8-60.8-53.6-167.2 16.8-237.6s176.8-77.6 237.6-16.8c60.8 60.8 53.6 167.2-16.8 237.6-38.4 37.6-88 57.6-134.4 57.6z m48-296.8c-36 0-75.2 16-106.4 46.4-54.4 54.4-62.4 136-16.8 180.8 45.6 45.6 126.4 37.6 180.8-16.8 54.4-54.4 62.4-136 16.8-180.8-19.2-20-46.4-29.6-74.4-29.6z"
      p-id="3535"></path>
  <path d="M783.2 148c37.6-37.6 88-48 112.8-22.4 24.8 24.8 15.2 76-22.4 112.8" fill="#F4AC9C" p-id="3536"></path>
  <path
      d="M876 241.6l-5.6-5.6c36-36 46.4-84 22.4-107.2-23.2-23.2-72-13.6-107.2 22.4l-5.6-5.6c39.2-39.2 92-48.8 118.4-22.4 27.2 26.4 16.8 79.2-22.4 118.4z"
      fill="#040000" p-id="3537"></path>
  <path d="M79.705046 269.822095a160 136 44.999 1 0 192.329688-192.336401 160 136 44.999 1 0-192.329688 192.336401Z"
        fill="#F6C456" p-id="3538"></path>
  <path
      d="M200 342.4c-46.4 0-96-20-134.4-58.4-70.4-70.4-77.6-176.8-16.8-237.6C109.6-14.4 216-6.4 286.4 63.2c70.4 70.4 77.6 176.8 16.8 237.6-27.2 28-64.8 41.6-103.2 41.6zM152 45.6c-28.8 0-55.2 9.6-75.2 29.6C32 120 39.2 201.6 93.6 256c54.4 54.4 136 62.4 180.8 16.8 45.6-45.6 37.6-126.4-16.8-180.8-30.4-31.2-69.6-46.4-105.6-46.4z"
      p-id="3539"></path>
  <path d="M240.8 148c-37.6-37.6-88-48-112.8-22.4s-15.2 76 22.4 112.8" fill="#F4AC9C" p-id="3540"></path>
  <path
      d="M148 241.6c-39.2-39.2-48.8-92-22.4-118.4 26.4-26.4 80-16 118.4 22.4l-5.6 5.6c-36-36-84-46.4-107.2-22.4-11.2 11.2-15.2 28-11.2 48 4 20.8 16 41.6 33.6 59.2l-5.6 5.6z"
      fill="#040000" p-id="3541"></path>
  <path d="M512.8 515.2m-480 0a480 480 0 1 0 960 0 480 480 0 1 0-960 0Z" fill="#F6C456" p-id="3542"></path>
  <path
      d="M512.8 1015.2c-276 0-500-224-500-500s224-500 500-500 500 224 500 500-224 500-500 500z m0-960C259.2 55.2 52.8 261.6 52.8 515.2s206.4 460 460 460 460-206.4 460-460S766.4 55.2 512.8 55.2z"
      p-id="3543"></path>
  <path
      d="M935.2 743.2C840 677.6 689.6 635.2 520.8 635.2c-176 0-332 46.4-426.4 116.8 82.4 145.6 238.4 244 418.4 244 182.4-0.8 341.6-102.4 422.4-252.8z"
      fill="#F9D791" p-id="3544"></path>
  <path
      d="M512.8 1015.2c-180 0-346.4-97.6-435.2-254.4l-8.8-15.2 14.4-10.4c100.8-75.2 264-120.8 437.6-120.8 168 0 323.2 40.8 426.4 112l14.4 10.4-8.8 16c-87.2 161.6-256 262.4-440 262.4zM121.6 756.8c83.2 135.2 232 218.4 391.2 218.4 163.2 0 313.6-86.4 396-225.6-95.2-59.2-238.4-94.4-388-94.4-156.8-0.8-304 37.6-399.2 101.6z"
      p-id="3545"></path>
  <path
      d="M632.8 114.4h-224c-6.4 0-12-5.6-12-12s5.6-12 12-12h224c6.4 0 12 5.6 12 12s-5.6 12-12 12zM632.8 170.4h-224c-6.4 0-12-5.6-12-12s5.6-12 12-12h224c6.4 0 12 5.6 12 12s-5.6 12-12 12zM632.8 226.4h-224c-6.4 0-12-5.6-12-12s5.6-12 12-12h224c6.4 0 12 5.6 12 12s-5.6 12-12 12z"
      fill="#9B7125" p-id="3546"></path>
  <path d="M520.8 226.4c-6.4 0-12-5.6-12-12v-112c0-6.4 5.6-12 12-12s12 5.6 12 12v112c0 6.4-5.6 12-12 12z" fill="#9B7125"
        p-id="3547"></path>
  <path
      d="M232.8 331.2c-2.4 0-5.6-0.8-8-2.4-4.8-4-5.6-12-1.6-16.8 24.8-29.6 57.6-46.4 92-46.4 32 0 62.4 14.4 86.4 40.8 4.8 4.8 4 12.8-0.8 16.8-4.8 4.8-12.8 4-16.8-0.8-19.2-20.8-44-32.8-68.8-32.8-27.2 0-52.8 13.6-73.6 37.6-2.4 2.4-5.6 4-8.8 4zM632.8 331.2c-2.4 0-5.6-0.8-8-2.4-4.8-4-5.6-12-1.6-16.8 24.8-29.6 57.6-46.4 92-46.4 32 0 62.4 14.4 86.4 40.8 4.8 4.8 4 12.8-0.8 16.8-4.8 4.8-12.8 4-16.8-0.8-19.2-20.8-44-32.8-68.8-32.8-27.2 0-52.8 13.6-73.6 37.6-2.4 2.4-5.6 4-8.8 4z"
      p-id="3548"></path>
  <path d="M237.6 430.4a99.2 77.6 90 1 0 155.2 0 99.2 77.6 90 1 0-155.2 0Z" fill="#FFFFFF" p-id="3549"></path>
  <path
      d="M315.2 542.4c-49.6 0-89.6-50.4-89.6-111.2S265.6 320 315.2 320s89.6 50.4 89.6 111.2-40 111.2-89.6 111.2z m0-199.2c-36 0-65.6 39.2-65.6 87.2s29.6 87.2 65.6 87.2 65.6-39.2 65.6-87.2-29.6-87.2-65.6-87.2z"
      p-id="3550"></path>
  <path d="M281.6 440m-40 0a40 40 0 1 0 80 0 40 40 0 1 0-80 0Z" p-id="3551"></path>
  <path d="M637.6 430.4a99.2 77.6 90 1 0 155.2 0 99.2 77.6 90 1 0-155.2 0Z" fill="#FFFFFF" p-id="3552"></path>
  <path
      d="M715.2 542.4c-49.6 0-89.6-50.4-89.6-111.2S665.6 320 715.2 320s89.6 50.4 89.6 111.2-40 111.2-89.6 111.2z m0-199.2c-36 0-65.6 39.2-65.6 87.2s29.6 87.2 65.6 87.2 65.6-39.2 65.6-87.2-29.6-87.2-65.6-87.2z"
      p-id="3553"></path>
  <path d="M681.6 440m-40 0a40 40 0 1 0 80 0 40 40 0 1 0-80 0Z" p-id="3554"></path>
  <path d="M509.6 624.8m-64 0a64 64 0 1 0 128 0 64 64 0 1 0-128 0Z" p-id="3555"></path>
  <path d="M497.192 769.536l3.368-147.96 24 0.552-3.376 147.952z" p-id="3556"></path>
  <path
      d="M509.6 785.6c-84.8 0-147.2-72.8-149.6-76-4-4.8-3.2-12.8 1.6-16.8 4.8-4 12.8-3.2 16.8 1.6 0.8 0.8 57.6 68 131.2 68S648 695.2 648 694.4c4.8-4.8 12-4.8 16.8-0.8s4.8 12 0.8 16.8c-2.4 2.4-71.2 75.2-156 75.2z"
      p-id="3557"></path>
  <path
      d="M895.2 476c-18.4 0-32-1.6-33.6-1.6-6.4-0.8-11.2-7.2-10.4-13.6 0.8-6.4 6.4-11.2 13.6-10.4 0.8 0 82.4 9.6 120.8-20 5.6-4 12.8-3.2 16.8 2.4s3.2 12.8-2.4 16.8c-28.8 21.6-73.6 26.4-104.8 26.4zM895.2 556c-18.4 0-32-1.6-33.6-1.6-6.4-0.8-11.2-6.4-10.4-13.6 0.8-6.4 6.4-11.2 13.6-10.4 0.8 0 82.4 9.6 120.8-20 5.6-4 12.8-3.2 16.8 2.4s3.2 12.8-2.4 16.8c-28.8 21.6-73.6 26.4-104.8 26.4zM136.8 476c-31.2 0-76-4-104.8-27.2-5.6-4-6.4-12-2.4-16.8 4-5.6 12-6.4 16.8-2.4 38.4 29.6 120 20 120.8 20 6.4-0.8 12.8 4 13.6 10.4 0.8 6.4-4 12.8-10.4 13.6-1.6 0.8-15.2 2.4-33.6 2.4zM136.8 556c-31.2 0-76-4-104.8-27.2-5.6-4-6.4-12-2.4-16.8 4-5.6 12-6.4 16.8-2.4 38.4 29.6 120 20 120.8 20 6.4-0.8 12.8 4 13.6 10.4s-4 12.8-10.4 13.6c-1.6 0.8-15.2 2.4-33.6 2.4z"
      fill="#9B7125" p-id="3558"></path>
  <path
      d="M512.8 1015.2c-276 0-500-224-500-500s224-500 500-500 500 224 500 500-224 500-500 500z m0-960C259.2 55.2 52.8 261.6 52.8 515.2s206.4 460 460 460 460-206.4 460-460S766.4 55.2 512.8 55.2z"
      p-id="3559"></path>
</svg>
